<svg xmlns="http://www.w3.org/2000/svg" viewBox="0 0 58 80"><g fill="#011627" fill-rule="nonzero"><path d="M48.67 35.238H8.473C3.25 40.808 0 48.432 0 56.935c0 8.503 3.448 16.712 9.36 22.479.394.39.886.586 1.379.586h35.665c.493 0 .985-.195 1.38-.586 6.01-5.767 9.359-13.976 9.359-22.48 0-8.502-3.251-16.125-8.473-21.696zM11.679 24.762h34.61L57.006 1.824a1.157 1.157 0 00-.099-1.248C56.711.192 56.22 0 55.826 0H2.239c-.491 0-.884.192-1.081.576C.96.96.863 1.44 1.06 1.824l10.619 22.938zM45.533 27.619H12.562a3.47 3.47 0 00-2.086 3.163c0 1.02.397 1.94 1.093 2.551h34.958c.695-.612 1.092-1.53 1.092-2.55 0-1.327-.894-2.552-2.086-3.164z"/></g></svg>