<svg xmlns="http://www.w3.org/2000/svg" viewBox="0 0 60 80"><g fill="#011627" fill-rule="nonzero"><path d="M8.445 7h35.118C44.37 7 45 6.372 45 5.564v-.897c0-.808-.629-1.436-1.437-1.436H31.887V1.436C31.887.628 31.258 0 30.45 0h-8.982c-.808 0-1.437.628-1.437 1.436V3.14H8.445c-.809 0-1.437.628-1.437 1.436v.897C6.918 6.282 7.636 7 8.445 7zM53.398 26.933h-8.244V16.411v-5.947c0-.824-.64-1.464-1.465-1.464H27.203v63.955H38.65c.825 0 1.466.64 1.466 1.464 0 .823-.641 1.464-1.466 1.464H12.823c-.825 0-1.466-.64-1.466-1.464s.641-1.464 1.466-1.464h11.449V9H0v2.928h.824c.641 0 1.374.183 1.924.549 2.29 1.098 3.48 3.843 3.48 6.221V72.59A7.384 7.384 0 0013.648 80h23.904a7.384 7.384 0 007.42-7.411v-10.43h8.242c3.756 0 6.778-2.654 6.778-5.856V32.697c.183-3.202-2.84-5.764-6.594-5.764zm2.472 29.37c0 .732-1.099 1.555-2.472 1.555h-8.244V31.233h8.244c1.465 0 2.472.824 2.472 1.556v23.514z"/></g></svg>