<svg xmlns="http://www.w3.org/2000/svg" viewBox="0 0 70 48"><g fill="#011627" fill-rule="nonzero"><path d="M61.463 9.79h-2.276l2.358-6.119h-.082c0-.163.082-.326.082-.49V1.959C61.545.898 60.65 0 59.593 0H1.951C.894 0 0 .897 0 1.958v1.224c0 .163 0 .326.081.49H0l13.17 34.51h35.204l2.683-6.935h10.488c4.065 0 8.455-1.142 8.455-4.406V14.196c-.081-3.182-4.472-4.406-8.537-4.406zm3.659 16.154c-.65.245-1.87.49-3.659.49h-8.617l4.471-11.83h4.146c1.708 0 3.009.244 3.659.49v10.85zM59.777 41.818H1.96c-1.062 0-1.96.953-1.96 2.078v1.299c0 1.125.898 2.078 1.96 2.078h57.898c1.062 0 1.96-.953 1.96-2.078v-1.299c-.081-1.125-.898-2.078-2.041-2.078z"/></g></svg>