<svg xmlns="http://www.w3.org/2000/svg" viewBox="0 0 14 20">
  <g fill="#BCC4DB">
    <path d="M5.24740772,16.0046729 C4.58755406,13.8146417 5.59304536,12.1277259 6.53569345,10.470405 C6.72422307,10.1448598 6.91275269,9.81931464 7.10128231,9.49376947 C7.91824399,7.95482866 8.20103842,6.23831776 7.85540078,4.75856698 C7.47834155,3.10124611 6.12721261,1.97663551 4.87034849,1.11838006 C4.80750528,1.08878505 4.77608368,1.02959502 4.74466207,1 C1.94813939,2.3317757 0,5.9423676 0,10.1744548 C0,15.5903427 3.20500352,20 7.16412551,20 C7.22696872,20 7.32123353,20 7.38407674,20 C7.22696872,19.7632399 7.10128231,19.5560748 6.94417429,19.3193146 C6.28432063,18.2834891 5.59304536,17.2180685 5.24740772,16.0046729 Z"/>
    <path d="M7.14285714,0 C6.7518797,0 6.36090226,0.0576631259 6,0.144157815 C7.20300752,1.03793627 8.4962406,2.27769347 8.88721805,4.03641882 C9.27819549,5.70864947 8.97744361,7.66919575 8.07518797,9.39908953 C7.89473684,9.74506829 7.71428571,10.0622155 7.53383459,10.4081942 C6.66165414,11.9650986 5.90977444,13.2913505 6.39097744,14.9924127 C6.69172932,16.030349 7.29323308,16.952959 7.89473684,17.9620637 C8.10526316,18.3080425 8.31578947,18.6540212 8.52631579,19 C11.6541353,18.0197269 14,14.185129 14,9.57207891 C14,4.29590288 10.9323308,0 7.14285714,0 Z"/>
  </g>
</svg>
