<svg xmlns="http://www.w3.org/2000/svg" viewBox="0 0 62 82">
  <path fill="#FF9F1C" d="M53.8555098,28.7329746 L33.4379475,0.822820939 C33.0596639,0.305389177 32.4600266,0 31.8224699,0 L31.8224699,0 C31.1846156,0 30.5849211,0.306438862 30.2069924,0.824507048 L9.82622148,28.7329746 C-2.24207917,40.9616506 -2.1930373,60.7388061 9.93575955,72.9064877 C22.0645564,85.0741693 41.6801796,85.0247236 53.7484803,72.7960476 C65.790979,60.6543804 65.826098,40.9201668 53.8555098,28.7329746 Z M52.1447091,59.2869464 C49.4409471,65.6541427 43.966479,70.4011048 37.3177693,72.1435236 C36.2440771,72.4228872 35.1490583,71.771789 34.8719765,70.6892551 C34.5948946,69.6067211 35.2406749,68.502685 36.3143671,68.2233214 C41.7546733,66.7971735 46.2338575,62.9123824 48.4454997,57.7020045 C48.8791328,56.6734808 50.057635,56.1941216 51.0777581,56.6313256 C52.0978812,57.0685296 52.5733252,58.2567367 52.1396921,59.2852603 L52.1447091,59.2869464 Z" transform="translate(-.807)"/>
</svg>
