<svg xmlns="http://www.w3.org/2000/svg" viewBox="0 0 30 35">
  <g fill="#FF9F1C">
    <path d="M15,3 C16.4283226,3 17.5862069,4.23507655 17.5862069,5.75862069 C17.5862069,7.28216483 16.4283226,8.51724138 15,8.51724138 C9.54901228,8.51724138 5.17241379,13.1856131 5.17241379,19 C5.17241379,24.8143869 9.54901228,29.4827586 15,29.4827586 C20.3923749,29.4827586 24.7333416,24.9142422 24.8260722,19.187159 L24.8275862,19 C24.8275862,17.4764559 25.9854705,16.2413793 27.4137931,16.2413793 C28.8421157,16.2413793 30,17.4764559 30,19 C30,27.8614752 23.307633,35 15,35 C6.69236703,35 0,27.8614752 0,19 C0,10.1385248 6.69236703,3 15,3 Z"/>
    <path d="M21.8244419,6.10726079 L15.9509468,0.160067118 C15.6153185,-0.176566486 15,0.0478559166 15,0.552806323 L15,12.4471937 C15,12.9521441 15.6153185,13.1765665 15.9509468,12.8399329 L21.8803799,6.89273921 C22.0481941,6.6683168 22.0481941,6.3316832 21.8244419,6.10726079 Z"/>
  </g>
</svg>
