<svg xmlns="http://www.w3.org/2000/svg" viewBox="0 0 46 92">
  <path fill="#BCC4DB" d="M34.9,49.6 L34.9,12.5 C34.9,5.92781148 29.5721885,0.6 23,0.6 C16.4278115,0.6 11.1,5.92781148 11.1,12.5 L11.1,16.6 L19,16.6 C20.3807119,16.6 21.5,17.7192881 21.5,19.1 C21.5,20.4807119 20.3807119,21.6 19,21.6 L11.1,21.6 L11.1,26.9 L19,26.9 C20.3807118,26.9000001 21.4999999,28.0192882 21.4999999,29.4 C21.4999999,30.7807118 20.3807118,31.8999999 19,31.9 L11.1,31.9 L11.1,37.2 L19,37.2 C20.3807119,37.2 21.5,38.3192881 21.5,39.7 C21.5,41.0807119 20.3807119,42.2 19,42.2 L11.1,42.2 L11.1,49.5 C1.73558901,55.1983492 -2.21893897,66.7746007 1.70194866,77.0113002 C5.62283629,87.2479997 16.2988969,93.2204047 27.0739189,91.2048951 C37.8489408,89.1893856 45.6443766,79.7618159 45.6002166,68.8 C45.6343617,60.969719 41.5773723,53.6898875 34.9,49.6 L34.9,49.6 Z"/>
</svg>
