<svg xmlns="http://www.w3.org/2000/svg" viewBox="0 0 20 20">
  <path fill="#BCC4DB" d="M13.3325,12.5 C13.2075,12.5 13.08,12.4716667 12.9608333,12.4125 L9.6275,10.7458333 C9.345,10.6041667 9.16666667,10.3158333 9.16666667,10 L9.16666667,4.16666667 C9.16666667,3.70666667 9.54,3.33333333 10,3.33333333 C10.46,3.33333333 10.8333333,3.70666667 10.8333333,4.16666667 L10.8333333,9.485 L13.7058333,10.9216667 C14.1175,11.1275 14.2841667,11.6283333 14.0783333,12.04 C13.9325,12.3316667 13.6383333,12.5 13.3325,12.5 L13.3325,12.5 Z M10,20 C4.48583333,20 0,15.5141667 0,10 C0,4.48583333 4.48583333,0 10,0 C15.5141667,0 20,4.48583333 20,10 C20,15.5141667 15.5141667,20 10,20 Z M10,1.66666667 C5.405,1.66666667 1.66666667,5.405 1.66666667,10 C1.66666667,14.595 5.405,18.3333333 10,18.3333333 C14.595,18.3333333 18.3333333,14.595 18.3333333,10 C18.3333333,5.405 14.595,1.66666667 10,1.66666667 Z"/>
</svg>
